# xmcd
#
# Track frame offsets: 
#        150
#        24663
#        44471
#        63559
#        83354
#        102105
#        128392
#        152812
#        175973
#        200764
#        221456
#        245916
#        265137
#
# Disc length: 3824 seconds
#
# Revision: 1
# Processed by: cddbd v1.5.2PL0 Copyright (c) Steve Scherf et al.
# Submitted via: ExactAudioCopy v0.99pb5
#
DISCID=b10eee0d
DTITLE=Vielmeer - Volume Two
DYEAR=2007
DGENRE=New Age
TTITLE0=Trag Mich Fort
TTITLE1=Every Day
TTITLE2=Das Boot
TTITLE3=Carpe Diem
TTITLE4=Mond und Sterne
TTITLE5=Heiligendamm07
TTITLE6=Matchrace
TTITLE7=Americas Cup
TTITLE8=Engine
TTITLE9=Weitsicht
TTITLE10=Wave
TTITLE11=Der Leuchtturm
TTITLE12=Neue Hoffnung
EXTD=YEAR: 2007
EXTT0=
EXTT1=
EXTT2=
EXTT3=
EXTT4=
EXTT5=
EXTT6=
EXTT7=
EXTT8=
EXTT9=
EXTT10=
EXTT11=
EXTT12=
PLAYORDER=
